<svg xmlns="http://www.w3.org/2000/svg" width="720" height="420">
<rect width="100%" height="100%" fill="#ffffff"/>
<text x="360.0" y="28" text-anchor="middle" font-family="sans-serif" font-size="16">Robustness vs cycle</text>
<line x1="56" y1="56" x2="56" y2="364" stroke="#333" stroke-width="1.5"/>
<line x1="56" y1="364" x2="664" y2="364" stroke="#333" stroke-width="1.5"/>
<text x="360.0" y="408" text-anchor="middle" font-family="sans-serif" font-size="12">Cycle</text>
<text x="18" y="210.0" text-anchor="middle" font-family="sans-serif" font-size="12" transform="rotate(-90 18,210.0)">Robustness score</text>
<line x1="56.0" y1="364" x2="56.0" y2="369" stroke="#333"/>
<text x="56.0" y="382" text-anchor="middle" font-family="sans-serif" font-size="10">1</text>
<line x1="152.0" y1="364" x2="152.0" y2="369" stroke="#333"/>
<text x="152.0" y="382" text-anchor="middle" font-family="sans-serif" font-size="10">4</text>
<line x1="280.0" y1="364" x2="280.0" y2="369" stroke="#333"/>
<text x="280.0" y="382" text-anchor="middle" font-family="sans-serif" font-size="10">8</text>
<line x1="408.0" y1="364" x2="408.0" y2="369" stroke="#333"/>
<text x="408.0" y="382" text-anchor="middle" font-family="sans-serif" font-size="10">12</text>
<line x1="536.0" y1="364" x2="536.0" y2="369" stroke="#333"/>
<text x="536.0" y="382" text-anchor="middle" font-family="sans-serif" font-size="10">16</text>
<line x1="664.0" y1="364" x2="664.0" y2="369" stroke="#333"/>
<text x="664.0" y="382" text-anchor="middle" font-family="sans-serif" font-size="10">20</text>
<polyline fill="none" stroke="#2563eb" stroke-width="2.5" points="56.0,265.7 88.0,198.8 120.0,167.9 152.0,153.7 184.0,147.1 216.0,144.0 248.0,142.6 280.0,142.0 312.0,141.7 344.0,141.5 376.0,141.5 408.0,141.4 440.0,141.4 472.0,141.4 504.0,141.4 536.0,141.4 568.0,141.4 600.0,141.4 632.0,141.4 664.0,141.4"/>
<rect x="64" y="60" width="12" height="12" fill="#2563eb"/>
<text x="82" y="70" font-family="sans-serif" font-size="12">distilbert-base-uncased</text>
<polyline fill="none" stroke="#dc2626" stroke-width="2.5" points="56.0,329.7 88.0,258.7 120.0,208.7 152.0,173.6 184.0,148.8 216.0,131.4 248.0,119.1 280.0,110.5 312.0,104.4 344.0,100.1 376.0,97.1 408.0,95.0 440.0,93.5 472.0,92.5 504.0,91.7 536.0,91.2 568.0,90.9 600.0,90.6 632.0,90.4 664.0,90.3"/>
<rect x="64" y="78" width="12" height="12" fill="#dc2626"/>
<text x="82" y="88" font-family="sans-serif" font-size="12">prajjwal1/bert-tiny</text>
</svg>
